<mxfile host="app.diagrams.net" modified="2022-03-04T16:49:53.759Z" agent="5.0 (X11; Linux x86_64) AppleWebKit/537.36 (KHTML, like Gecko) Chrome/98.0.4758.102 Safari/537.36" etag="lcvqLUxYomGEglj00FQG" version="16.6.5" type="github">
  <diagram id="C5RBs43oDa-KdzZeNtuy" name="Page-1">
    <mxGraphModel dx="1370" dy="805" grid="1" gridSize="10" guides="1" tooltips="1" connect="1" arrows="1" fold="1" page="1" pageScale="1" pageWidth="827" pageHeight="1169" math="0" shadow="0">
      <root>
        <mxCell id="WIyWlLk6GJQsqaUBKTNV-0" />
        <mxCell id="WIyWlLk6GJQsqaUBKTNV-1" parent="WIyWlLk6GJQsqaUBKTNV-0" />
        <mxCell id="2iSGDTpmSLMeSg-ngQAq-27" value="PdfParser" style="swimlane;fontStyle=0;childLayout=stackLayout;horizontal=1;startSize=26;fillColor=none;horizontalStack=0;resizeParent=1;resizeParentMax=0;resizeLast=0;collapsible=1;marginBottom=0;" vertex="1" parent="WIyWlLk6GJQsqaUBKTNV-1">
          <mxGeometry x="100" y="310" width="140" height="52" as="geometry" />
        </mxCell>
        <mxCell id="2iSGDTpmSLMeSg-ngQAq-31" value="DocParser" style="swimlane;fontStyle=0;childLayout=stackLayout;horizontal=1;startSize=26;fillColor=none;horizontalStack=0;resizeParent=1;resizeParentMax=0;resizeLast=0;collapsible=1;marginBottom=0;" vertex="1" parent="WIyWlLk6GJQsqaUBKTNV-1">
          <mxGeometry x="330" y="350" width="140" height="52" as="geometry" />
        </mxCell>
        <mxCell id="2iSGDTpmSLMeSg-ngQAq-33" value="TxtParser" style="swimlane;fontStyle=0;childLayout=stackLayout;horizontal=1;startSize=26;fillColor=none;horizontalStack=0;resizeParent=1;resizeParentMax=0;resizeLast=0;collapsible=1;marginBottom=0;" vertex="1" parent="WIyWlLk6GJQsqaUBKTNV-1">
          <mxGeometry x="540" y="310" width="140" height="52" as="geometry" />
        </mxCell>
        <mxCell id="2iSGDTpmSLMeSg-ngQAq-40" value="&lt;&lt;enumeration&gt;&gt;&#xa;FileStatus" style="swimlane;fontStyle=0;childLayout=stackLayout;horizontal=1;startSize=26;fillColor=none;horizontalStack=0;resizeParent=1;resizeParentMax=0;resizeLast=0;collapsible=1;marginBottom=0;" vertex="1" parent="WIyWlLk6GJQsqaUBKTNV-1">
          <mxGeometry x="100" y="460" width="260" height="78" as="geometry" />
        </mxCell>
        <mxCell id="2iSGDTpmSLMeSg-ngQAq-41" value="&lt;&lt;enum constant&gt;&gt; PROCESSED" style="text;strokeColor=none;fillColor=none;align=left;verticalAlign=top;spacingLeft=4;spacingRight=4;overflow=hidden;rotatable=0;points=[[0,0.5],[1,0.5]];portConstraint=eastwest;" vertex="1" parent="2iSGDTpmSLMeSg-ngQAq-40">
          <mxGeometry y="26" width="260" height="26" as="geometry" />
        </mxCell>
        <mxCell id="2iSGDTpmSLMeSg-ngQAq-42" value="&lt;&lt;enum constant&gt;&gt; UNPROCESSED" style="text;strokeColor=none;fillColor=none;align=left;verticalAlign=top;spacingLeft=4;spacingRight=4;overflow=hidden;rotatable=0;points=[[0,0.5],[1,0.5]];portConstraint=eastwest;" vertex="1" parent="2iSGDTpmSLMeSg-ngQAq-40">
          <mxGeometry y="52" width="260" height="26" as="geometry" />
        </mxCell>
        <mxCell id="2iSGDTpmSLMeSg-ngQAq-48" value="SimpleFileParser" style="swimlane;fontStyle=3;align=center;verticalAlign=top;childLayout=stackLayout;horizontal=1;startSize=26;horizontalStack=0;resizeParent=1;resizeParentMax=0;resizeLast=0;collapsible=1;marginBottom=0;" vertex="1" parent="WIyWlLk6GJQsqaUBKTNV-1">
          <mxGeometry x="200" y="110" width="396" height="138" as="geometry" />
        </mxCell>
        <mxCell id="2iSGDTpmSLMeSg-ngQAq-49" value="+ fileExtension: String" style="text;strokeColor=none;fillColor=none;align=left;verticalAlign=top;spacingLeft=4;spacingRight=4;overflow=hidden;rotatable=0;points=[[0,0.5],[1,0.5]];portConstraint=eastwest;" vertex="1" parent="2iSGDTpmSLMeSg-ngQAq-48">
          <mxGeometry y="26" width="396" height="26" as="geometry" />
        </mxCell>
        <mxCell id="2iSGDTpmSLMeSg-ngQAq-53" value="+ fileStatus: FileStatus" style="text;strokeColor=none;fillColor=none;align=left;verticalAlign=top;spacingLeft=4;spacingRight=4;overflow=hidden;rotatable=0;points=[[0,0.5],[1,0.5]];portConstraint=eastwest;" vertex="1" parent="2iSGDTpmSLMeSg-ngQAq-48">
          <mxGeometry y="52" width="396" height="26" as="geometry" />
        </mxCell>
        <mxCell id="2iSGDTpmSLMeSg-ngQAq-50" value="" style="line;strokeWidth=1;fillColor=none;align=left;verticalAlign=middle;spacingTop=-1;spacingLeft=3;spacingRight=3;rotatable=0;labelPosition=right;points=[];portConstraint=eastwest;" vertex="1" parent="2iSGDTpmSLMeSg-ngQAq-48">
          <mxGeometry y="78" width="396" height="8" as="geometry" />
        </mxCell>
        <mxCell id="2iSGDTpmSLMeSg-ngQAq-51" value="+ getFileParser(String directory): File" style="text;strokeColor=none;fillColor=none;align=left;verticalAlign=top;spacingLeft=4;spacingRight=4;overflow=hidden;rotatable=0;points=[[0,0.5],[1,0.5]];portConstraint=eastwest;" vertex="1" parent="2iSGDTpmSLMeSg-ngQAq-48">
          <mxGeometry y="86" width="396" height="26" as="geometry" />
        </mxCell>
        <mxCell id="2iSGDTpmSLMeSg-ngQAq-52" value="+ getStatistics(File file): String" style="text;strokeColor=none;fillColor=none;align=left;verticalAlign=top;spacingLeft=4;spacingRight=4;overflow=hidden;rotatable=0;points=[[0,0.5],[1,0.5]];portConstraint=eastwest;" vertex="1" parent="2iSGDTpmSLMeSg-ngQAq-48">
          <mxGeometry y="112" width="396" height="26" as="geometry" />
        </mxCell>
        <mxCell id="2iSGDTpmSLMeSg-ngQAq-54" value="Extends" style="endArrow=block;endSize=16;endFill=0;html=1;rounded=0;" edge="1" parent="WIyWlLk6GJQsqaUBKTNV-1" source="2iSGDTpmSLMeSg-ngQAq-27" target="2iSGDTpmSLMeSg-ngQAq-52">
          <mxGeometry width="160" relative="1" as="geometry">
            <mxPoint x="110" y="280" as="sourcePoint" />
            <mxPoint x="270" y="280" as="targetPoint" />
          </mxGeometry>
        </mxCell>
        <mxCell id="2iSGDTpmSLMeSg-ngQAq-55" value="Extends" style="endArrow=block;endSize=16;endFill=0;html=1;rounded=0;" edge="1" parent="WIyWlLk6GJQsqaUBKTNV-1" source="2iSGDTpmSLMeSg-ngQAq-31" target="2iSGDTpmSLMeSg-ngQAq-52">
          <mxGeometry width="160" relative="1" as="geometry">
            <mxPoint x="380.00306930693074" y="320" as="sourcePoint" />
            <mxPoint x="519.9634653465346" y="258" as="targetPoint" />
          </mxGeometry>
        </mxCell>
        <mxCell id="2iSGDTpmSLMeSg-ngQAq-56" value="Extends" style="endArrow=block;endSize=16;endFill=0;html=1;rounded=0;" edge="1" parent="WIyWlLk6GJQsqaUBKTNV-1" source="2iSGDTpmSLMeSg-ngQAq-33" target="2iSGDTpmSLMeSg-ngQAq-52">
          <mxGeometry width="160" relative="1" as="geometry">
            <mxPoint x="581.3235064935067" y="352" as="sourcePoint" />
            <mxPoint x="579.9988311688313" y="250" as="targetPoint" />
          </mxGeometry>
        </mxCell>
      </root>
    </mxGraphModel>
  </diagram>
</mxfile>
